<svg
   xmlns:dc="http://purl.org/dc/elements/1.1/"
   xmlns:cc="http://creativecommons.org/ns#"
   xmlns:rdf="http://www.w3.org/1999/02/22-rdf-syntax-ns#"
   xmlns:svg="http://www.w3.org/2000/svg"
   xmlns="http://www.w3.org/2000/svg"
   version="1.1"
   width="318"
   height="107"
   id="svg2">
  <metadata
     id="metadata8">
    <rdf:RDF>
      <cc:Work
         rdf:about="">
        <dc:format>image/svg+xml</dc:format>
        <dc:type
           rdf:resource="http://purl.org/dc/dcmitype/StillImage" />
        <dc:title></dc:title>
      </cc:Work>
    </rdf:RDF>
  </metadata>
  <defs
     id="defs6" />
  <path
     d="m 88.5,16 0,76 m -15,-76 0,76 m -15,-76 0,76 m -15,-76 0,76 m -15,-76 0,76 M 13,91.5 l 76,0 m -76,-15 76,0 m -76,-15 76,0 m -76,-15 76,0 m -76,-15 76,0 m -76,-15 76,0 M 13.5,16 l 0,76"
     id="path3013"
     style="fill:none;stroke:#000000;stroke-width:1px;stroke-linecap:butt;stroke-linejoin:miter;stroke-opacity:1" />
  <path
     d="m 223.5,16.5 75,0 0,15 -60,0 0,15 60,0 0,15 -60,0 0,15 60,0 0,15 -75,0 z"
     id="path3233"
     style="fill:#000000;stroke:#000000;stroke-width:1px;stroke-linecap:butt;stroke-linejoin:miter;stroke-opacity:1" />
  <g
     id="g3036">
    <path
       d="m 118.5,16.5 75,0 0,15 -60,0 0,15 60,0 0,15 -60,0 0,15 60,0 0,15 -75,0 z"
       id="path3191"
       style="fill:#000000;stroke:#000000;stroke-width:1px;stroke-linecap:butt;stroke-linejoin:miter;stroke-opacity:1" />
    <path
       d="m 193.5,16 0,76 m -15,-76 0,76 m -15,-76 0,76 m -15,-76 0,76 m -15,-76 0,76 m -15.5,-0.5 76,0 m -76,-15 76,0 m -76,-15 76,0 m -76,-15 76,0 m -76,-15 76,0 m -76,-15 76,0 m -75.5,-0.5 0,76"
       id="path3259"
       style="fill:none;stroke:#000000;stroke-width:1px;stroke-linecap:butt;stroke-linejoin:miter;stroke-opacity:1" />
  </g>
</svg>
